<svg id="Capa_1" data-name="Capa 1" xmlns="http://www.w3.org/2000/svg" viewBox="0 0 2358.55 493.35"><defs><style>.cls-1{fill:#fff;}</style></defs><path class="cls-1" d="M653.11,581.4q-63.84,0-127.66,0c-10.4,0-9.64-1.33-9.7,9.76,0,4.6-.13,9.21.12,13.79a34.74,34.74,0,0,0,33.54,33c3.73.15,7.48,0,11.21,0H778.88c1.73,0,3.45,0,5.18,0,6.44.14,6.55.14,6.56,6.76q.07,36.23,0,72.46c0,6.91-.1,7-7.15,7q-61.26,0-122.5,0c-36.81,0-73.62.15-110.42.09-65.15-.11-118.66-50.9-120.88-116.07-1.25-36.77-.37-73.61-.4-110.42,0-10.06-.17-20.14.32-30.18,2.74-56.71,45.79-104.42,101.8-113.17a165.6,165.6,0,0,1,25.74-2q110.43.09,220.85,0h5.17c8.76-.09,7.49.54,7.49,7.51q0,34.95,0,69.88c0,8.17,1.47,8.5-8.31,8.5q-90.15,0-180.3,0c-17.51,0-35,0-52.52.91-18.12.95-32.63,14.93-33.62,33-.28,5.16-.16,10.34-.12,15.52.06,7.13.1,7.23,6.94,7.24,9.49,0,19-.2,28.46-.19q115.17.09,230.33.22c.86,0,1.73,0,2.59,0,6.42.18,6.53.18,6.54,6.88q.07,36.23,0,72.46c0,6.78-.11,6.87-7.26,6.88q-62.54,0-125.08,0Zm-11-72.19v-.38c-21.28,0-42.57-.05-63.86,0s-42.56.3-63.84.33c-7.48,0-12.49-4.83-12.59-12.06-.13-10.06.39-20.15-.07-30.2-.81-17.76,21.48-38.8,35.58-40.95a29.5,29.5,0,0,1,4.29-.4c14.07-.05,28.08-1.32,42.17-1.26,54.66.24,109.31.1,164,.1,7.76,0,15.54-.2,23.29.07,4.54.16,5.91-1.52,5.83-6-.23-14.09,0-28.19-.1-42.28,0-10.54,1.35-9.66-9.69-9.67q-101,0-201.94-.05c-9.52,0-19,.34-28.32,2.2-33,6.6-60.29,21.9-77.47,52.14a120.61,120.61,0,0,0-16.09,61c.12,38,0,75.94,0,113.91a119.36,119.36,0,0,0,2,23.16c11.76,59.77,57.37,90.64,109.58,91.36,70.75,1,141.52.18,212.28.15a36.43,36.43,0,0,1,4.31,0c4.23.5,5.42-1.42,5.36-5.46-.2-12.66.06-25.32-.14-38-.07-4.78,2.12-10.71-1.28-14-3.07-3-8.79-1-13.32-1q-107.43-.11-214.87.06c-12.33,0-22.47-3.78-30.72-12.85-1.16-1.27-2.42-2.46-3.65-3.66a35.16,35.16,0,0,1-11.09-26.25c0-9.78.09-19.56-.06-29.34-.06-3.39,1.11-5.85,3.3-8.46,3.24-3.85,7.17-4.06,11.6-4.06q124.27.08,248.53,0a52.71,52.71,0,0,1,6,0c4.76.56,5.73-1.8,5.67-6-.19-13.8,0-27.61-.09-41.42-.07-11.81,1.54-10.76-10.41-10.77Q704.2,509.17,642.07,509.21Z" transform="translate(-30.3 -351.41)"/><path class="cls-1" d="M1988.07,353.53c.12,1.56.35,3.26.35,5q0,36.24,0,72.49c0,7.37-.08,7.45-7.61,7.46-46.31,0-92.63-.41-138.93.16q-45.71.56-91.39.84c-20,.15-34.63,14.9-35.19,34.93-.14,4.88-.11,9.78,0,14.67.12,5.94.18,6.08,6.35,6.1,17.55.07,35.1,0,52.64,0h157.91c16.4,0,32.8,0,49.19,0,6.95,0,7,.12,7,7.23q.06,35.37,0,70.76c0,8.21,1.39,8.22-8.52,8.22H1761.59c-12.94,0-25.89,0-38.83,0-7.37,0-7.41.1-7.48,7.66,0,5.18-.15,10.36.09,15.53.88,18.58,15.4,32.75,34.08,33.38,2.59.09,5.18,0,7.77,0q110.9,0,221.78,0c10.27,0,9.42-1.09,9.43,9.07q0,34.1,0,68.18c0,9.57,1,9-8.66,9h-85.43c-48,0-96.08.23-144.12.07-56.7-.18-104.54-38-118.08-92.94a96.78,96.78,0,0,1-3.13-23c0-46.31-1-92.65.2-138.93,1.3-52.63,36.92-97,87.44-111.74A112.67,112.67,0,0,1,1748.1,353q116.06-.19,232.12-.42C1982.76,352.59,1985.41,352.07,1988.07,353.53ZM1840.86,509.21q-63,0-126,0c-9,0-13.54-4.62-13.6-13.68,0-8.91-.15-17.83,0-26.75.38-18.35,15.83-37.69,33.73-42.28a31.81,31.81,0,0,1,7.66-.94c26.72-.23,53.44.24,80.15-1,13.78-.65,27.61-.11,41.42-.11q51.78,0,103.55,0c6.58,0,6.69-.14,6.72-6.61q.11-20.71,0-41.42c0-10.58,1.4-9.81-9.56-9.79q-103.56.14-207.1.29a109.94,109.94,0,0,0-21.45,1.83c-28.87,5.72-53.91,18-71.43,42.65a118.1,118.1,0,0,0-22.23,70.35c.09,38,0,75.94,0,113.91a109.39,109.39,0,0,0,2.16,24c6.87,30.65,21.14,56.37,48.84,73.09a119.61,119.61,0,0,0,63.07,17.81l118.22-.12q46.17,0,92.34,0c7,0,7.09-.1,7.11-7q.09-20.72,0-41.42c-.06-11.42,1.23-10-10.22-10-72.78,0-145.56-.72-218.32.44-19.87.31-47.13-23.91-44.89-44.73,1-8.82.54-17.84,0-26.73-.33-5.42,2.43-8.53,5.86-11.71,3-2.75,6.55-1.72,9.88-1.72q123.41-.08,246.8,0c2.3,0,4.6-.1,6.9,0,3,.12,4-1.25,4-4.15-.07-16.39-.12-32.79,0-49.18,0-3.89-1.67-5.12-5.18-4.88-1.15.08-2.3,0-3.45,0Z" transform="translate(-30.3 -351.41)"/><path class="cls-1" d="M2280.3,581.46l108.3,141.78c-2.92,1.44-5.2,1-7.33,1-29.91,0-59.82-.13-89.73.16-5.51.06-8.89-1.74-12.26-5.95-34.89-43.52-70.06-86.82-104.88-130.41-4.05-5.07-8.16-7.43-14.55-6.74-4.55.48-9.19.08-13.79.09-8.34,0-7.68.14-7.68-7.3q0-35.39,0-70.75c0-8.14.06-8.17,8.7-8.17,19.27,0,38.56.54,57.8-.16,21.25-.77,42.5-.51,63.75-1,14.5-.34,24.85-7.77,31.23-20.8A14.14,14.14,0,0,0,2300,460c-6.31-13-16.29-20.79-31-21-36.51-.38-73-.5-109.53-.58a129.47,129.47,0,0,0-17.15,1.17,35,35,0,0,0-29.93,32.09c-.12,1.72-.11,3.45-.14,5.17-1.54,76.76-.83,153.52-1,230.27,0,3.43,0,6.86,0,10.28-2.75,1.44-4.84,0-6.72-.76-46.87-19.66-73.79-54.49-78.24-105.36-1.5-17.13-.52-34.49-.55-51.74,0-28.47,0-56.95,0-85.42,0-55.4,37.57-102.32,88.23-116.57,11.63-3.27,23.47-5.41,35.69-5.13s24.16,0,36.23.08c27,.26,54-1.65,81-1.06,30.41.66,57.71,9.81,80.62,30,26,22.94,41.65,51.57,41.33,86.69-.27,28.74-12.62,53.42-32.13,74.24-19.08,20.37-42.51,32.94-70.3,37A48.31,48.31,0,0,0,2280.3,581.46Zm77.73,128c-1-3.18-3.32-5.36-5.14-7.76q-33.72-44.23-67.57-88.38c-5.91-7.67-11.25-15.74-19.15-21.91-7.08-5.54-5.2-19.83,2.67-23.53,3.5-1.65,7.79-1.61,11.72-2.33,47.08-8.69,78.13-35.23,91.17-81.85,2.66-9.5,4-18.88,1.52-28.8-8.08-32.42-24.24-58.67-54.67-74.74a127,127,0,0,0-57-14.61c-14.91-.36-29.82.24-44.74.85-18.37.75-36.8.3-55.2.12a137.56,137.56,0,0,0-28.29,2.15c-39.61,7.86-69.09,28.48-84.67,66.81a122.65,122.65,0,0,0-8.95,47.09c.13,37.38,0,74.76,0,112.14,0,8.35.33,16.67,2.16,24.87,6.83,30.65,21.13,56.34,48.78,73.07,1.82,1.1,3.54,3.22,6.68,1.62V686q0-37.1,0-74.18c0-47.13-.2-94.26.83-141.38.43-19.61,15.23-39.39,33.91-43.8a88.82,88.82,0,0,1,20.47-2.08c41.1,0,82.21.35,123.31.51a31.59,31.59,0,0,1,18.57,6,66,66,0,0,1,15.82,15.76c7.52,10.79,8.34,22.66,2.8,34.33-4.92,10.36-13.26,18-23.36,23.44a30.28,30.28,0,0,1-14.92,3.56c-37.07-.52-74.11,1.93-111.18,1.11-2.3-.05-4.6.09-6.9,0-3.27-.12-4.52,1.3-4.5,4.62q.17,24.58,0,49.17c0,3.41,1.35,4.66,4.59,4.43,1.72-.12,3.5.26,5.17-.05,11.05-2.08,18.68,2.87,24.51,11.69a17.13,17.13,0,0,0,1.06,1.36q50.1,62.09,100.1,124.26c3.42,4.26,6.88,5.94,12.33,5.82,16.67-.36,33.35-.1,50-.16C2352.49,710.35,2355.08,710.94,2358,709.44Z" transform="translate(-30.3 -351.41)"/><path class="cls-1" d="M913.21,483.16c-1.29,3.8-.76,7-.76,10.11q-.06,109.14,0,218.28c0,1.73,0,3.45,0,5.18-.1,7.45-.11,7.52-7.59,7.53q-34.94,0-69.88,0c-6.09,0-6.1-.15-6.26-6.19-.05-1.72,0-3.45,0-5.18V363.45c0-1.44,0-2.88,0-4.32.13-6.4.14-6.53,6.76-6.54,25.88,0,51.77.16,77.65-.17,5.21-.07,7.68,2.45,10.41,6q80,104.4,160.19,208.7c5.78,7.53,11.52,15.08,17.37,22.55,1.15,1.46,1.74,3.7,5,3.84V353.72c3-1.56,5.3-1.13,7.57-1.13q34.08,0,68.16,0c7.47,0,7.54.09,7.54,7.48q0,74.2,0,148.4,0,103.1,0,206.2c0,10.71,1.12,9.58-9.75,9.6-23.87,0-47.75-.28-71.61.2-6.61.14-10.36-2.21-14.19-7.22Q1007.06,603.84,920,490.71C918.1,488.27,916.6,485.45,913.21,483.16Zm-70.65,55.49V672.39c0,10.35,0,20.7,0,31.06,0,6.83.11,6.9,7.24,6.92q19.41.07,38.82,0c10.61-.06,9.69,1.35,9.7-9.69q0-102.66,0-205.34c0-5.18,0-10.35,0-15.53a10.11,10.11,0,0,1,2.26-7.15,16,16,0,0,1,23.35-.89c6.75,6.73,12,14.7,17.76,22.21q80.71,105,161.2,210.11c3.45,4.49,6.94,6.61,12.83,6.45,16.67-.44,33.36-.11,50-.17,10.86,0,9.65,1.11,9.66-9.66q0-162.19,0-324.4c0-1.73-.12-3.46,0-5.18.25-3.29-1.14-4.62-4.46-4.6q-23.3.14-46.59,0c-3.41,0-4.63,1.38-4.41,4.61.14,2,0,4,0,6V511.76q0,42.27,0,84.55c0,8.41-4.87,12.92-13.1,13.49-6,.42-10.62-1.29-14.17-6.12-1.87-2.54-4-4.92-5.89-7.43q-61.21-79.69-122.4-159.42-24.95-32.5-49.92-65c-2.07-2.69-3.76-5.43-8.08-5.38-19.55.23-39.11.2-58.67,0-4.31,0-5.6,1.71-5.23,5.65.19,2,0,4,0,6Z" transform="translate(-30.3 -351.41)"/><path class="cls-1" d="M256.71,724.38c-34.8,0-69.59-.06-104.39,0-65,.14-119-50.68-121.35-115.67-1.25-35-.38-70.16-.39-105.24,0-12.65-.22-25.33.45-37.95,2.87-54.08,46.05-101.88,99.56-110.73a174.89,174.89,0,0,1,28.33-2.21q104.84-.09,209.65,0c11,0,9.24-.21,9.27,9.21q.11,33.64,0,67.3c0,9.44,1.74,9.38-9.14,9.37q-88.87,0-177.74,0c-13.48,0-27-.35-40.46.84-18.8,1.66-33.17,15.48-33.31,34.23q-.5,65.13,0,130.27c.15,19.46,15.32,34,35,34.14,29.33.22,58.67.06,88,.06H367.85c2,0,4,.1,6,0,3-.14,4.1,1.42,4,4.22-.05,1.14,0,2.3,0,3.45q0,35.37,0,70.74c0,8.22.35,7.84-8.14,7.84q-56.5,0-113,0Zm-3.23-14q51.32,0,102.65,0c7.79,0,7.82-.07,7.84-8.09,0-13.23,0-26.45,0-39.68,0-12,1.3-10.68-10.45-10.69-68.72,0-137.46-.71-206.17.42-19.32.32-45.11-23.81-44.62-44.26,1.1-46.27.23-92.59.4-138.88.07-18.81,15.89-38.31,34.1-42.84a18,18,0,0,1,3.38-.64c7.44-.39,14.81-1.42,22.31-1.39,46,.16,92,.08,138,.08,18.12,0,36.24,0,54.35,0,9.94,0,8.67-.1,8.69-9.07q0-19.85,0-39.68c0-9.65,1.11-9.11-9.44-9.11q-94.47,0-188.93,0c-9.2,0-18.4.34-27.46,2.11-39.31,7.68-68.65,28.14-84.36,66a122.15,122.15,0,0,0-9.25,47.89c.14,37.39,0,74.77,0,112.15,0,8.35.37,16.66,2.16,24.86C55,657.38,75.1,685.72,111.62,701a117.41,117.41,0,0,0,46.1,9.47C189.64,710.31,221.56,710.39,253.48,710.39Z" transform="translate(-30.3 -351.41)"/><path class="cls-1" d="M1408.69,352.57q85.38,0,170.77,0c10.73,0,9.49-.94,9.51,9.88q.08,33.63,0,67.27c0,8.69,0,8.71-9,8.72h-119c-2,0-4,.07-6,0-3.2-.1-4.79,1.28-4.63,4.6.11,2.3,0,4.6,0,6.9q0,132,0,263.93c0,12.05,1.39,10.3-10.64,10.35-21.56.1-43.12,0-64.68,0-7.8,0-7.85-.06-7.85-8q0-133.26,0-266.51c0-12.19,1.69-11.23-10.85-11.24q-58.22,0-116.44,0c-1.72,0-3.45,0-5.17,0-6-.16-6.16-.17-6.18-6.28-.07-20.12,0-40.25,0-60.37,0-4.89.12-9.78,0-14.66-.11-3.26,1-4.84,4.43-4.58,2,.14,4,0,6,0Zm.06,14H1395q-72.46,0-144.91,0c-7.59,0-7.65.07-7.68,7.34q-.06,20.7,0,41.4c0,10-.83,9.08,9.44,9.09q56.49,0,113,0c12.32,0,16.12,3.89,16.12,16.48v110.4q0,75,0,150.08c0,9.63-1,9,8.59,9q17.25,0,34.5,0c12.34,0,12.34,0,12.34-12.15q0-129.39-.09-258.76c0-4.9.93-8.7,4.63-12.24,3.21-3.06,6.67-2.83,10.36-2.83q58.23,0,116.44,0c7.07,0,7.17-.12,7.2-7.06q.1-22,0-44c0-6.61-.13-6.62-6.57-6.78-1.73,0-3.45,0-5.18,0Z" transform="translate(-30.3 -351.41)"/><path class="cls-1" d="M1592.24,844.63c-8.47,0-15-.17-21.51.06-3.93.14-5.47-2.62-7.37-5.07q-12.42-16-24.78-32a30.13,30.13,0,0,0-3.87-4.59c-2.18-1.87-5-1.37-7.4-.72s-1.65,3.3-1.67,5.15c-.06,10.34,0,20.69-.06,31-.06,6-.18,6-6.35,6.16-5.17.09-10.34-.08-15.51,0-3.26.08-4.81-1.25-4.65-4.53,0-.86,0-1.73,0-2.59q0-44.38,0-88.77c0-7.08.12-7.17,7-7.18q39.64,0,79.29,0c6.19,0,6.33.14,6.36,6q.12,24.12,0,48.26c0,5.88-.17,6-6.34,6-7.43.08-14.85,0-23.2,0,3.71,8.28,9.49,14.21,14.13,20.87S1586.1,836.23,1592.24,844.63Zm-46-60.13c.86,0,1.72.06,2.57,0,5.88-.5,13.5,2.61,17.18-1.56,3.56-4,.67-11.5,1.16-17.43.33-4-1.09-5.72-5.29-5.55-6,.25-12-.14-18,.12s-13.52-2.67-17.15,1.49-.59,11.51-1.13,17.44c-.44,4.82,2,5.76,6.09,5.55C1536.49,784.3,1541.36,784.49,1546.22,784.5Z" transform="translate(-30.3 -351.41)"/><path class="cls-1" d="M1438.15,794.06c0,14.66,0,29.32,0,44,0,6.47-.15,6.58-6.77,6.59q-39.66.07-79.33,0c-6.42,0-6.55-.14-6.56-6.83q-.08-44.84,0-89.68c0-6.4.16-6.5,6.81-6.51q39.67-.06,79.33,0c6.4,0,6.49.13,6.52,6.75C1438.19,763.59,1438.15,778.82,1438.15,794.06Zm-24.67-1.2c0-9.17-.07-18.34,0-27.51,0-3.33-.53-5.45-4.6-5.38-10.89.16-21.78.09-32.67,0-2.72,0-4.27.75-4.26,3.83q.07,29.24,0,58.46c0,2.94,1.12,4.06,4,4,10.89-.08,21.78-.13,32.66,0,3.83,0,4.9-1.56,4.84-5.14C1413.38,811.78,1413.48,802.32,1413.48,792.86Z" transform="translate(-30.3 -351.41)"/><path class="cls-1" d="M425.79,793.19c0-15.23.09-30.46-.06-45.69,0-4.21.95-6.07,5.74-6q40.5.35,81,0c4.66,0,5.81,1.61,5.79,5.95q-.19,45.69,0,91.38c0,4.44-1.34,6.23-5.91,5.9a119.7,119.7,0,0,0-13.79,0c-3.79.16-5-1.51-4.94-5.11.14-10.63-.12-21.27.12-31.9.11-4.41-1.23-6.07-5.81-5.95-10.34.28-20.69.21-31,0-3.8-.06-5,1.41-4.91,5,.15,10.63-.11,21.26.12,31.89.09,4.36-1.17,6.33-5.81,6a110.18,110.18,0,0,0-14.65,0c-4.54.32-6-1.37-6-5.85.2-13.5.07-27,.07-40.51ZM473,784.6c.86,0,1.72,0,2.58,0,5.66-.33,13.07,2.45,16.56-1.06,4.19-4.21,1-11.92,1.56-18.08.38-3.83-.83-5.77-5.14-5.69-10.57.21-21.15.1-31.73,0-2.95,0-4.92.58-4.79,4.22.19,5.42.17,10.86,0,16.29-.1,3.46,1.53,4.39,4.67,4.31C462.15,784.49,467.58,784.59,473,784.6Z" transform="translate(-30.3 -351.41)"/><path class="cls-1" d="M1739,793.3c0-14.95,0-29.9,0-44.86,0-6.71.13-6.83,6.49-6.84,26.75-.05,53.49.06,80.24-.1,4.32,0,6.14,1,6,5.71-.35,15.45,1.34,12.62-11.9,12.76-15.24.17-30.48,0-45.72,0-9.58,0-8.52-.73-8.6,9,0,1.72,0,3.45,0,5.17.11,11.77-1.13,10.24,9.9,10.3,15.82.07,31.63,0,47.45,0q3,0,6,.1c1.22,0,2.43.54,2.46,1.84.11,4.58.41,9.22-.13,13.74-.3,2.55-3.24,1.71-5.1,1.72-16.68.06-33.36,0-50,0-2,0-4,.13-6,0-3.3-.24-4.76,1.11-4.56,4.46.36,6.27-2.44,14,1.11,18.41,3.41,4.19,11.32,1.37,17.23,1.46,13.8.22,27.61,0,41.41.09,6.2,0,6.38.15,6.37,6.1-.05,14.61,1.44,12.08-11.51,12.16-23.87.14-47.74.07-71.61,0-9.89,0-9.56,1.53-9.55-9.9Q1739,814,1739,793.3Z" transform="translate(-30.3 -351.41)"/><path class="cls-1" d="M885.53,793c0-14.94,0-29.89,0-44.83,0-6.35.13-6.51,5.91-6.52,27-.06,54,0,81-.1,4.27,0,6.18,1,6.06,5.73-.39,15.24,1.43,12.61-11.94,12.74-16.09.14-32.19,0-48.28.06-6.47,0-6.49.15-6.6,6.76-.06,3.45,0,6.9,0,10.34.09,7.27.11,7.33,7.79,7.34,17.53,0,35.06,0,52.59,0,6.16,0,6.33.15,6.32,6.12,0,13.27,1.27,11.19-10.64,11.27-16.38.11-32.77,0-49.15.05-6.74,0-6.78.12-6.9,6.46-.08,4,.25,8.07-.09,12.07-.38,4.57,1.44,6,5.88,5.9,14.37-.2,28.74-.07,43.11-.07,4.31,0,8.63.16,12.93,0,3.81-.18,5,1.49,4.94,5.1-.23,16.17,1.49,13.11-12.28,13.21-24.14.17-48.28.06-72.42,0-8.26,0-8.28,0-8.3-8.56Q885.5,814.52,885.53,793Z" transform="translate(-30.3 -351.41)"/><path class="cls-1" d="M1085.9,741.58c13.23,0,26.46-.05,39.68,0,6.31,0,6.5.14,6.48,6-.08,14.74,1.7,12.29-12.17,12.41-16.11.14-32.21,0-48.32.06-6,0-6.09.17-6.21,6.28-.07,4-.09,8.06,0,12.08.14,5.92.19,6,6.45,6.07,17,.07,33.94,0,50.9,0,10.31,0,9.35-.74,9.37,9.18,0,14.67.05,29.34,0,44,0,6.78-.13,6.92-6.46,6.93q-40.12.09-80.24,0c-6.06,0-6.23-.17-6.21-6.28,0-14.22-1.44-11.88,11.73-12q25-.2,50,0c4.27,0,6.41-1,6-5.71a91.47,91.47,0,0,1,0-12.93c.28-4.44-1.31-6-5.88-5.9-16.1.24-32.2.09-48.31.09-3.16,0-6.33-.09-9.49,0-2.86.08-4.15-1.06-4.14-4,.06-17.26.1-34.51,0-51.77,0-4.11,2.09-4.62,5.4-4.58,10.64.09,21.28,0,31.92,0Z" transform="translate(-30.3 -351.41)"/><path class="cls-1" d="M1238.07,741.58c13.52,0,27,.15,40.55-.08,4.37-.08,6.11,1.12,6,5.74-.35,15.41,1.35,12.59-11.93,12.73-15.81.17-31.63,0-47.44.06-6.7,0-6.73.11-6.84,6.41-.07,3.74-.06,7.48,0,11.22.11,6.74.13,6.8,7.33,6.82,16.39,0,32.79,0,49.18,0,1.72,0,3.46.12,5.17,0,3.38-.27,4.52,1.29,4.49,4.55-.11,10.35,0,20.7,0,31.05,0,6.33-.13,12.66,0,19,.11,3.86-.89,5.69-5.28,5.66q-41-.26-82,0c-4.07,0-5.44-1.25-5.61-5.39-.52-13-.69-13,12.62-13,16.39,0,32.78,0,49.17,0,6.17,0,6.22-.15,6.33-6.11.08-4.32-.2-8.64.07-12.94s-1.59-5.4-5.57-5.36c-17,.15-33.93.06-50.9.06-2,0-4-.16-6,0-4,.38-5.69-1-5.65-5.26q.27-25,0-50c0-4.43,1.93-5.21,5.76-5.16C1211,741.68,1224.56,741.58,1238.07,741.58Z" transform="translate(-30.3 -351.41)"/><path class="cls-1" d="M1939.22,741.58c13.22,0,26.46.15,39.68-.08,4.51-.08,6,1.43,5.88,5.91-.38,15,1.55,12.44-12.12,12.57-16.11.14-32.21,0-48.32.06-6.2,0-6.41.16-6.32,6.13.09,5.69-2.38,12.74,1,16.73,3.59,4.21,10.82,1.4,16.43,1.51,14.09.26,28.18,0,42.28.1,6.76,0,6.88.12,6.91,6.43q.12,23.71,0,47.45c0,6.05-.17,6.21-6.29,6.22q-40.12.09-80.24,0c-6.2,0-6.38-.16-6.36-6.12,0-14.37-1.45-12,11.57-12.14,16.39-.13,32.78,0,49.17-.05,6.86,0,6.88-.11,7-7.18,0-2.88,0-5.75,0-8.63,0-8.5,0-8.53-8.25-8.54q-22.86,0-45.72,0h-4.31c-10.34-.07-9.44.92-9.46-9.06,0-12.37,0-24.74,0-37.1,0-14.2,0-14.2,13.82-14.2Z" transform="translate(-30.3 -351.41)"/><path class="cls-1" d="M779,741.58c13.51,0,27,.15,40.51-.08,4.34-.08,6.13,1.07,6,5.72-.38,15.59,1.53,12.58-12.74,12.75-15.51.18-31,0-46.53.06-6.79,0-6.91.1-6.93,6.3-.07,18.1.11,36.2-.12,54.29-.06,4.6,1.54,5.83,5.92,5.78,17.52-.2,35-.1,52.57-.07,7.64,0,7.64.07,7.75,7.33,0,1.15,0,2.29,0,3.44-.09,7.45-.09,7.52-7.57,7.53q-39.21,0-78.41,0c-6.55,0-6.69-.13-6.7-6.68q-.07-44.82,0-89.62c0-6.6.14-6.69,6.6-6.72C752.58,741.53,765.79,741.58,779,741.58Z" transform="translate(-30.3 -351.41)"/><path class="cls-1" d="M625.4,741.58c13.5,0,27,.14,40.5-.08,4.34-.08,6.13,1.07,6,5.72-.38,15.59,1.53,12.58-12.74,12.75-15.51.18-31,0-46.53.06-6.79,0-6.91.1-6.93,6.3-.06,18.1.11,36.2-.12,54.29-.06,4.6,1.54,5.83,5.93,5.78,17.52-.2,35-.1,52.56-.07,7.64,0,7.65.07,7.75,7.33,0,1.15,0,2.29,0,3.44-.09,7.45-.09,7.52-7.56,7.53q-39.21,0-78.42,0c-6.54,0-6.68-.13-6.7-6.68q-.07-44.82,0-89.62c0-6.6.14-6.69,6.61-6.72C599,741.53,612.18,741.58,625.4,741.58Z" transform="translate(-30.3 -351.41)"/><path class="cls-1" d="M1651.88,792.32c0-14.92.11-29.85-.08-44.77,0-4.28,1-6.33,5.74-6,5.43.35,10.9.18,16.36.06,2.9-.07,4.24,1.08,4.12,4-.08,1.71,0,3.44,0,5.16q0,43.05,0,86.11c0,7.63-.07,7.65-7.34,7.72-4.3,0-8.62-.21-12.91.07s-6-1.3-6-5.84c.23-14.06.08-28.13.08-42.19C1651.87,795.19,1651.87,793.76,1651.88,792.32Z" transform="translate(-30.3 -351.41)"/><path class="cls-1" d="M642.07,509.21q62.13,0,124.26,0c11.95,0,10.34-1,10.41,10.77.08,13.81-.1,27.62.09,41.42.06,4.24-.91,6.6-5.67,6a52.71,52.71,0,0,0-6,0q-124.26,0-248.53,0c-4.43,0-8.36.21-11.6,4.06-2.19,2.61-3.36,5.07-3.3,8.46.15,9.78.08,19.56.06,29.34a35.16,35.16,0,0,0,11.09,26.25c1.23,1.2,2.49,2.39,3.65,3.66,8.25,9.07,18.39,12.89,30.72,12.85q107.43-.33,214.87-.06c4.53,0,10.25-2,13.32,1,3.4,3.33,1.21,9.26,1.28,14,.2,12.65-.06,25.31.14,38,.06,4-1.13,6-5.36,5.46a36.43,36.43,0,0,0-4.31,0c-70.76,0-141.53.84-212.28-.15-52.21-.72-97.82-31.59-109.58-91.36a119.36,119.36,0,0,1-2-23.16c0-38,.07-75.94,0-113.91a120.61,120.61,0,0,1,16.09-61c17.18-30.24,44.42-45.54,77.47-52.14,9.33-1.86,18.8-2.22,28.32-2.2q101,.14,201.94.05c11,0,9.65-.87,9.69,9.67.07,14.09-.13,28.19.1,42.28.08,4.45-1.29,6.13-5.83,6-7.75-.27-15.53-.07-23.29-.07-54.66,0-109.31.14-164-.1-14.09-.06-28.1,1.21-42.17,1.26a29.5,29.5,0,0,0-4.29.4c-14.1,2.15-36.39,23.19-35.58,40.95.46,10.05-.06,20.14.07,30.2.1,7.23,5.11,12.06,12.59,12.06,21.28,0,42.56-.27,63.84-.33s42.58,0,63.86,0Z" transform="translate(-30.3 -351.41)"/><path class="cls-1" d="M1840.86,509.21H1966c1.15,0,2.3.08,3.45,0,3.51-.24,5.21,1,5.18,4.88-.15,16.39-.1,32.79,0,49.18,0,2.9-1,4.27-4,4.15-2.3-.09-4.6,0-6.9,0q-123.4,0-246.8,0c-3.33,0-6.92-1-9.88,1.72-3.43,3.18-6.19,6.29-5.86,11.71.53,8.89.94,17.91,0,26.73-2.24,20.82,25,45,44.89,44.73,72.76-1.16,145.54-.48,218.32-.44,11.45,0,10.16-1.42,10.22,10q.09,20.72,0,41.42c0,6.93-.1,7-7.11,7q-46.17.06-92.34,0l-118.22.12a119.61,119.61,0,0,1-63.07-17.81c-27.7-16.72-42-42.44-48.84-73.09a109.39,109.39,0,0,1-2.16-24c0-38,.06-75.94,0-113.91A118.1,118.1,0,0,1,1665,411.34c17.52-24.62,42.56-36.93,71.43-42.65a109.94,109.94,0,0,1,21.45-1.83q103.55-.09,207.1-.29c11,0,9.51-.79,9.56,9.79q.11,20.7,0,41.42c0,6.47-.14,6.6-6.72,6.61q-51.78.06-103.55,0c-13.81,0-27.64-.54-41.42.11-26.71,1.27-53.43.8-80.15,1a31.81,31.81,0,0,0-7.66.94c-17.9,4.59-33.35,23.93-33.73,42.28-.18,8.92-.08,17.84,0,26.75.06,9.06,4.59,13.67,13.6,13.68Q1777.86,509.26,1840.86,509.21Z" transform="translate(-30.3 -351.41)"/><path class="cls-1" d="M2358,709.44c-3,1.5-5.54.91-8,.92-16.68.06-33.36-.2-50,.16-5.45.12-8.91-1.56-12.33-5.82q-49.86-62.28-100.1-124.26a17.13,17.13,0,0,1-1.06-1.36c-5.83-8.82-13.46-13.77-24.51-11.69-1.67.31-3.45-.07-5.17.05-3.24.23-4.62-1-4.59-4.43q.17-24.59,0-49.17c0-3.32,1.23-4.74,4.5-4.62,2.3.09,4.6-.05,6.9,0,37.07.82,74.11-1.63,111.18-1.11a30.28,30.28,0,0,0,14.92-3.56c10.1-5.43,18.44-13.08,23.36-23.44,5.54-11.67,4.72-23.54-2.8-34.33A66,66,0,0,0,2294.47,431a31.59,31.59,0,0,0-18.57-6c-41.1-.16-82.21-.5-123.31-.51a88.82,88.82,0,0,0-20.47,2.08c-18.68,4.41-33.48,24.19-33.91,43.8-1,47.12-.79,94.25-.83,141.38q0,37.1,0,74.18v8.3c-3.14,1.6-4.86-.52-6.68-1.62-27.65-16.73-41.95-42.42-48.78-73.07-1.83-8.2-2.16-16.52-2.16-24.87,0-37.38.08-74.76,0-112.14a122.65,122.65,0,0,1,8.95-47.09c15.58-38.33,45.06-58.95,84.67-66.81a137.56,137.56,0,0,1,28.29-2.15c18.4.18,36.83.63,55.2-.12,14.92-.61,29.83-1.21,44.74-.85a127,127,0,0,1,57,14.61c30.43,16.07,46.59,42.32,54.67,74.74,2.48,9.92,1.14,19.3-1.52,28.8-13,46.62-44.09,73.16-91.17,81.85-3.93.72-8.22.68-11.72,2.33-7.87,3.7-9.75,18-2.67,23.53,7.9,6.17,13.24,14.24,19.15,21.91q33.93,44.09,67.57,88.38C2354.71,704.08,2357,706.26,2358,709.44Z" transform="translate(-30.3 -351.41)"/><path class="cls-1" d="M842.56,538.65V378.18c0-2,.16-4.05,0-6-.37-3.94.92-5.69,5.23-5.65,19.56.17,39.12.2,58.67,0,4.32,0,6,2.69,8.08,5.38q25,32.49,49.92,65,61.2,79.71,122.4,159.42c1.92,2.51,4,4.89,5.89,7.43,3.55,4.83,8.16,6.54,14.17,6.12,8.23-.57,13.09-5.08,13.1-13.49q.09-42.27,0-84.55V377.17c0-2,.13-4,0-6-.22-3.23,1-4.63,4.41-4.61q23.28.17,46.59,0c3.32,0,4.71,1.31,4.46,4.6-.13,1.72,0,3.45,0,5.18q0,162.2,0,324.4c0,10.77,1.2,9.63-9.66,9.66-16.68.06-33.37-.27-50,.17-5.89.16-9.38-2-12.83-6.45Q1022.46,598.91,941.71,494c-5.77-7.51-11-15.48-17.76-22.21a16,16,0,0,0-23.35.89,10.11,10.11,0,0,0-2.26,7.15c0,5.18,0,10.35,0,15.53q0,102.68,0,205.34c0,11,.91,9.63-9.7,9.69q-19.41.11-38.82,0c-7.13,0-7.2-.09-7.24-6.92-.06-10.36,0-20.71,0-31.06Z" transform="translate(-30.3 -351.41)"/><path class="cls-1" d="M253.48,710.39c-31.92,0-63.84-.08-95.76,0a117.41,117.41,0,0,1-46.1-9.47C75.1,685.72,55,657.38,46.74,619.58c-1.79-8.2-2.16-16.51-2.16-24.86,0-37.38.09-74.76,0-112.15a122.15,122.15,0,0,1,9.25-47.89c15.71-37.86,45.05-58.32,84.36-66,9.06-1.77,18.26-2.11,27.46-2.11q94.47,0,188.93,0c10.55,0,9.41-.54,9.44,9.11q0,19.83,0,39.68c0,9,1.25,9.09-8.69,9.07-18.11,0-36.23,0-54.35,0-46,0-92,.08-138-.08-7.5,0-14.87,1-22.31,1.39a18,18,0,0,0-3.38.64c-18.21,4.53-34,24-34.1,42.84-.17,46.29.7,92.61-.4,138.88-.49,20.45,25.3,44.58,44.62,44.26,68.71-1.13,137.45-.45,206.17-.42,11.75,0,10.4-1.33,10.45,10.69.06,13.23,0,26.45,0,39.68,0,8-.05,8.08-7.84,8.09Q304.8,710.41,253.48,710.39Z" transform="translate(-30.3 -351.41)"/><path class="cls-1" d="M1408.75,366.55h154.39c1.73,0,3.45,0,5.18,0,6.44.16,6.54.17,6.57,6.78q.1,22,0,44c0,6.94-.13,7.05-7.2,7.06q-58.21.06-116.44,0c-3.69,0-7.15-.23-10.36,2.83-3.7,3.54-4.63,7.34-4.63,12.24q.18,129.38.09,258.76c0,12.15,0,12.15-12.34,12.15q-17.25,0-34.5,0c-9.61,0-8.59.62-8.59-9q0-75,0-150.08V440.89c0-12.59-3.8-16.47-16.12-16.48q-56.51,0-113,0c-10.27,0-9.42,1-9.44-9.09q-.06-20.7,0-41.4c0-7.27.09-7.34,7.68-7.34q72.45,0,144.91,0Z" transform="translate(-30.3 -351.41)"/></svg>